<svg width="45" height="45" viewBox="0 0 45 45" fill="none" xmlns="http://www.w3.org/2000/svg">
<circle cx="22.5" cy="22.5" r="22.5" fill="#C51F3C"/>
<path d="M22.169 29.2367C19.9652 29.2367 18.0288 28.7446 16.3598 27.7603C14.6909 26.7761 13.375 25.4174 12.4122 23.6843C11.4707 21.9298 11 19.9078 11 17.6183C11 15.3289 11.4707 13.3176 12.4122 11.5845C13.375 9.82999 14.6909 8.46061 16.3598 7.47636C18.0288 6.49212 19.9652 6 22.169 6C24.3729 6 26.32 6.49212 28.0103 7.47636C29.7006 8.46061 31.0058 9.82999 31.9259 11.5845C32.8673 13.3176 33.338 15.3289 33.338 17.6183C33.338 19.9078 32.8673 21.9298 31.9259 23.6843C31.0058 25.4174 29.7006 26.7761 28.0103 27.7603C26.32 28.7446 24.3729 29.2367 22.169 29.2367ZM22.169 24.9039C23.4742 24.9039 24.5868 24.6043 25.5069 24.0052C26.4483 23.4061 27.1758 22.5716 27.6893 21.5018C28.2028 20.4106 28.4596 19.1161 28.4596 17.6183C28.4596 16.1206 28.2028 14.8368 27.6893 13.767C27.1758 12.6757 26.4483 11.8413 25.5069 11.2636C24.5868 10.6645 23.4742 10.3649 22.169 10.3649C20.9066 10.3649 19.8047 10.6645 18.8632 11.2636C17.9218 11.8413 17.1943 12.6757 16.6808 13.767C16.1673 14.8368 15.9105 16.1206 15.9105 17.6183C15.9105 19.1161 16.1673 20.4106 16.6808 21.5018C17.1943 22.5716 17.9218 23.4061 18.8632 24.0052C19.8047 24.6043 20.9066 24.9039 22.169 24.9039Z" fill="white"/>
<path d="M27.0474 38.4702C27.0474 38.4702 27.0474 38.48 27.0474 38.478C27.0474 35.8212 24.528 33.6658 21.4308 33.6658C18.3337 33.6658 15.8142 35.8212 15.8142 38.48V38.4721H27.0474V38.4702Z" fill="white"/>
</svg>
